<mxfile host="Electron" modified="2024-07-12T04:56:54.671Z" agent="Mozilla/5.0 (Macintosh; Intel Mac OS X 10_15_7) AppleWebKit/537.36 (KHTML, like Gecko) draw.io/22.0.3 Chrome/114.0.5735.289 Electron/25.8.4 Safari/537.36" etag="35ZijnSYKHF12f9FPz6-" version="22.0.3" type="device">
  <diagram name="Page-1" id="2iiblhJojxCSHII93MCZ">
    <mxGraphModel dx="1682" dy="557" grid="1" gridSize="10" guides="1" tooltips="1" connect="1" arrows="1" fold="1" page="1" pageScale="1" pageWidth="827" pageHeight="1169" math="0" shadow="0">
      <root>
        <mxCell id="0" />
        <mxCell id="1" parent="0" />
        <mxCell id="XqsP8aMILD5FHppGHq1a-1" value="VIDEO FILE" style="rounded=1;whiteSpace=wrap;html=1;" vertex="1" parent="1">
          <mxGeometry x="-600" y="360" width="120" height="60" as="geometry" />
        </mxCell>
        <mxCell id="XqsP8aMILD5FHppGHq1a-2" value="" style="endArrow=classic;html=1;rounded=0;exitX=1;exitY=0.5;exitDx=0;exitDy=0;entryX=0;entryY=0.5;entryDx=0;entryDy=0;" edge="1" parent="1" source="XqsP8aMILD5FHppGHq1a-1" target="XqsP8aMILD5FHppGHq1a-4">
          <mxGeometry width="50" height="50" relative="1" as="geometry">
            <mxPoint x="-410" y="520" as="sourcePoint" />
            <mxPoint x="-430" y="330" as="targetPoint" />
          </mxGeometry>
        </mxCell>
        <mxCell id="XqsP8aMILD5FHppGHq1a-3" value="" style="endArrow=classic;html=1;rounded=0;exitX=1;exitY=0.5;exitDx=0;exitDy=0;entryX=0;entryY=0.5;entryDx=0;entryDy=0;" edge="1" parent="1" source="XqsP8aMILD5FHppGHq1a-1" target="XqsP8aMILD5FHppGHq1a-5">
          <mxGeometry width="50" height="50" relative="1" as="geometry">
            <mxPoint x="-520" y="440" as="sourcePoint" />
            <mxPoint x="-430" y="450" as="targetPoint" />
          </mxGeometry>
        </mxCell>
        <mxCell id="XqsP8aMILD5FHppGHq1a-4" value="IMAGES" style="rounded=1;whiteSpace=wrap;html=1;" vertex="1" parent="1">
          <mxGeometry x="-430" y="330" width="60" height="30" as="geometry" />
        </mxCell>
        <mxCell id="XqsP8aMILD5FHppGHq1a-5" value="TEXT" style="rounded=1;whiteSpace=wrap;html=1;" vertex="1" parent="1">
          <mxGeometry x="-430" y="420" width="60" height="30" as="geometry" />
        </mxCell>
        <mxCell id="XqsP8aMILD5FHppGHq1a-6" value="API" style="rounded=1;whiteSpace=wrap;html=1;" vertex="1" parent="1">
          <mxGeometry x="-210" y="360" width="120" height="60" as="geometry" />
        </mxCell>
        <mxCell id="XqsP8aMILD5FHppGHq1a-11" style="edgeStyle=orthogonalEdgeStyle;rounded=0;orthogonalLoop=1;jettySize=auto;html=1;entryX=0;entryY=0.5;entryDx=0;entryDy=0;" edge="1" parent="1" source="XqsP8aMILD5FHppGHq1a-8" target="XqsP8aMILD5FHppGHq1a-6">
          <mxGeometry relative="1" as="geometry" />
        </mxCell>
        <mxCell id="XqsP8aMILD5FHppGHq1a-8" value="&lt;font style=&quot;font-size: 10px;&quot;&gt;COMPLEX CHUNKS&lt;/font&gt;" style="rounded=1;whiteSpace=wrap;html=1;" vertex="1" parent="1">
          <mxGeometry x="-330" y="375" width="70" height="30" as="geometry" />
        </mxCell>
        <mxCell id="XqsP8aMILD5FHppGHq1a-9" value="" style="endArrow=classic;html=1;rounded=0;exitX=1;exitY=0.5;exitDx=0;exitDy=0;entryX=0;entryY=0.5;entryDx=0;entryDy=0;" edge="1" parent="1" source="XqsP8aMILD5FHppGHq1a-4" target="XqsP8aMILD5FHppGHq1a-8">
          <mxGeometry width="50" height="50" relative="1" as="geometry">
            <mxPoint x="-480" y="400" as="sourcePoint" />
            <mxPoint x="-420" y="445" as="targetPoint" />
          </mxGeometry>
        </mxCell>
        <mxCell id="XqsP8aMILD5FHppGHq1a-10" value="" style="endArrow=classic;html=1;rounded=0;exitX=1;exitY=0.5;exitDx=0;exitDy=0;entryX=0;entryY=0.5;entryDx=0;entryDy=0;" edge="1" parent="1" source="XqsP8aMILD5FHppGHq1a-5" target="XqsP8aMILD5FHppGHq1a-8">
          <mxGeometry width="50" height="50" relative="1" as="geometry">
            <mxPoint x="-360" y="355" as="sourcePoint" />
            <mxPoint x="-320" y="400" as="targetPoint" />
          </mxGeometry>
        </mxCell>
        <mxCell id="XqsP8aMILD5FHppGHq1a-12" value="Time Coding" style="rounded=1;whiteSpace=wrap;html=1;" vertex="1" parent="1">
          <mxGeometry x="-270" y="480" width="90" height="40" as="geometry" />
        </mxCell>
        <mxCell id="XqsP8aMILD5FHppGHq1a-14" value="" style="endArrow=classic;html=1;rounded=0;exitX=0.5;exitY=1;exitDx=0;exitDy=0;entryX=0.5;entryY=0;entryDx=0;entryDy=0;" edge="1" parent="1" source="XqsP8aMILD5FHppGHq1a-6" target="XqsP8aMILD5FHppGHq1a-12">
          <mxGeometry width="50" height="50" relative="1" as="geometry">
            <mxPoint x="-510" y="570" as="sourcePoint" />
            <mxPoint x="-460" y="520" as="targetPoint" />
          </mxGeometry>
        </mxCell>
        <mxCell id="XqsP8aMILD5FHppGHq1a-15" value="QA" style="rounded=1;whiteSpace=wrap;html=1;" vertex="1" parent="1">
          <mxGeometry x="-120" y="480" width="90" height="40" as="geometry" />
        </mxCell>
        <mxCell id="XqsP8aMILD5FHppGHq1a-16" value="" style="endArrow=classic;html=1;rounded=0;exitX=0.5;exitY=1;exitDx=0;exitDy=0;entryX=0.5;entryY=0;entryDx=0;entryDy=0;" edge="1" parent="1" source="XqsP8aMILD5FHppGHq1a-6" target="XqsP8aMILD5FHppGHq1a-15">
          <mxGeometry width="50" height="50" relative="1" as="geometry">
            <mxPoint x="-140" y="430" as="sourcePoint" />
            <mxPoint x="-230" y="490" as="targetPoint" />
          </mxGeometry>
        </mxCell>
        <mxCell id="XqsP8aMILD5FHppGHq1a-17" value="&lt;font style=&quot;font-size: 9px;&quot;&gt;text chunks with corresponding images in video&lt;/font&gt;" style="text;html=1;strokeColor=none;fillColor=none;align=center;verticalAlign=middle;whiteSpace=wrap;rounded=0;" vertex="1" parent="1">
          <mxGeometry x="-340" y="320" width="100" height="50" as="geometry" />
        </mxCell>
        <mxCell id="XqsP8aMILD5FHppGHq1a-19" value="ViT" style="rounded=1;whiteSpace=wrap;html=1;" vertex="1" parent="1">
          <mxGeometry x="-85" y="530" width="55" height="20" as="geometry" />
        </mxCell>
        <mxCell id="XqsP8aMILD5FHppGHq1a-20" value="semantic" style="rounded=1;whiteSpace=wrap;html=1;" vertex="1" parent="1">
          <mxGeometry x="-270" y="530" width="60" height="30" as="geometry" />
        </mxCell>
        <mxCell id="XqsP8aMILD5FHppGHq1a-21" value="clustering" style="rounded=1;whiteSpace=wrap;html=1;" vertex="1" parent="1">
          <mxGeometry x="-270" y="572" width="70" height="25" as="geometry" />
        </mxCell>
        <mxCell id="XqsP8aMILD5FHppGHq1a-22" value="topic modeling&lt;br&gt;" style="rounded=1;whiteSpace=wrap;html=1;" vertex="1" parent="1">
          <mxGeometry x="-270" y="610" width="90" height="25" as="geometry" />
        </mxCell>
      </root>
    </mxGraphModel>
  </diagram>
</mxfile>
